<svg xmlns="http://www.w3.org/2000/svg" viewBox="0 0 128 128" role="img" aria-label="OMP logo">
  <rect x="8" y="8" width="112" height="112" rx="20" fill="#0E639C"/>
  <path d="M32 64c0-17.673 14.327-32 32-32s32 14.327 32 32-14.327 32-32 32S32 81.673 32 64Zm32-16c-8.837 0-16 7.163-16 16s7.163 16 16 16 16-7.163 16-16-7.163-16-16-16Z" fill="#FFFFFF"/>
  <path d="M64 18c25.405 0 46 20.595 46 46s-20.595 46-46 46-46-20.595-46-46 20.595-46 46-46Zm0 8c-20.987 0-38 17.013-38 38s17.013 38 38 38 38-17.013 38-38-17.013-38-38-38Z" fill="#9CDCFE" opacity="0.9"/>
</svg>
